<svg width="195" height="188" viewBox="0 0 195 188" fill="none" xmlns="http://www.w3.org/2000/svg">
<rect width="195" height="188" fill="black"/>
<path d="M86.7844 128.411C86.5501 128.237 86.377 128.041 86.2649 127.823C86.1553 127.601 86.1092 127.375 86.1268 127.144C86.1499 126.912 86.2403 126.69 86.3979 126.478L87.5082 124.986C87.6682 124.771 87.8549 124.621 88.0681 124.535C88.2846 124.452 88.5134 124.432 88.7543 124.477C88.9977 124.519 89.2365 124.627 89.4707 124.801C89.7082 124.978 89.8802 125.175 89.9866 125.394C90.0986 125.612 90.1443 125.836 90.1235 126.064C90.106 126.296 90.0172 126.519 89.8572 126.734L89.1352 126.197C89.2403 126.055 89.2802 125.918 89.2549 125.784C89.2328 125.653 89.1495 125.534 89.0051 125.427C88.8607 125.319 88.7209 125.272 88.5858 125.287C88.4538 125.303 88.3353 125.382 88.2303 125.523L87.1199 127.015C87.0172 127.153 86.9757 127.289 86.9954 127.424C87.0207 127.557 87.1056 127.678 87.25 127.785C87.3944 127.893 87.5326 127.938 87.6645 127.922C87.8021 127.904 87.9222 127.827 88.0248 127.689L88.7469 128.226C88.5893 128.438 88.401 128.587 88.1822 128.673C87.9689 128.759 87.7406 128.781 87.4972 128.74C87.2594 128.697 87.0218 128.588 86.7844 128.411ZM88.9147 129.739C88.6231 129.581 88.4449 129.352 88.3801 129.052C88.3153 128.753 88.3776 128.429 88.5669 128.082L88.9684 127.344C89.1558 126.999 89.3927 126.773 89.6793 126.665C89.9678 126.553 90.2578 126.577 90.5494 126.735C90.7884 126.865 90.9381 127.038 90.9986 127.253C91.0611 127.465 91.0244 127.695 90.8887 127.945L90.8046 127.66L90.9891 127.76L91.3499 127.034L91.7801 126.244L92.5706 126.674L90.477 130.521L89.7128 130.105L90.0139 129.552L89.8295 129.452L90.1143 129.368C89.9786 129.617 89.8039 129.775 89.5904 129.841C89.3788 129.903 89.1536 129.869 88.9147 129.739ZM89.5721 129.209C89.7162 129.288 89.8506 129.308 89.9754 129.272C90.1021 129.231 90.2065 129.135 90.2887 128.984L90.6616 128.299C90.7438 128.148 90.7665 128.01 90.7296 127.885C90.6947 127.757 90.6052 127.654 90.4612 127.575C90.3136 127.495 90.1765 127.475 90.0498 127.516C89.9285 127.554 89.8268 127.649 89.7446 127.8L89.3717 128.485C89.2895 128.636 89.2641 128.775 89.2955 128.902C89.3323 129.026 89.4245 129.129 89.5721 129.209ZM91.2839 130.769L92.0119 128.799L91.1902 128.495L91.471 127.736L92.2927 128.039L92.4487 127.617C92.5555 127.328 92.7383 127.134 92.9972 127.033C93.2612 126.93 93.5527 126.938 93.8716 127.056L94.7777 127.391L94.5073 128.122L93.6293 127.798C93.5543 127.77 93.4834 127.771 93.4166 127.802C93.3549 127.831 93.3102 127.882 93.2825 127.957L93.1369 128.351L94.2681 128.769L93.9873 129.529L92.8561 129.111L92.1281 131.081L91.2839 130.769ZM94.221 131.67C93.8946 131.609 93.6516 131.472 93.492 131.26C93.3362 131.047 93.2866 130.79 93.3432 130.487C93.4041 130.161 93.5627 129.932 93.8191 129.801C94.0802 129.666 94.4231 129.639 94.8478 129.718L95.5202 129.844L95.5653 129.602C95.5888 129.476 95.5623 129.367 95.4858 129.276C95.4132 129.185 95.3022 129.125 95.1528 129.098C95.0152 129.072 94.8953 129.082 94.7931 129.128C94.6909 129.174 94.6197 129.25 94.5795 129.357L93.7243 129.197C93.8206 128.877 94.0102 128.646 94.2932 128.504C94.5808 128.358 94.9212 128.322 95.3144 128.395C95.7273 128.472 96.0345 128.635 96.2362 128.885C96.4426 129.131 96.5139 129.425 96.45 129.767L96.0427 131.949L95.1875 131.79L95.2866 131.259L95.145 131.232L95.331 131.053C95.2855 131.297 95.1607 131.475 94.9566 131.588C94.7572 131.697 94.512 131.725 94.221 131.67ZM94.6724 131.083C94.8454 131.115 94.9954 131.097 95.1224 131.027C95.254 130.954 95.3338 130.842 95.3617 130.693L95.4266 130.345L94.7719 130.223C94.6382 130.198 94.5227 130.217 94.4255 130.28C94.329 130.339 94.269 130.432 94.2455 130.558C94.2205 130.692 94.2459 130.806 94.3217 130.902C94.3982 130.993 94.5151 131.054 94.6724 131.083ZM97.3656 131.973C97.0937 131.968 96.8563 131.922 96.6537 131.835C96.4511 131.744 96.2931 131.621 96.1795 131.468C96.0699 131.314 96.0167 131.135 96.02 130.931L96.9199 130.945C96.9183 131.041 96.9591 131.12 97.0421 131.181C97.1292 131.239 97.2408 131.268 97.3768 131.271L97.6407 131.275C97.8047 131.277 97.9292 131.249 98.0141 131.191C98.103 131.132 98.1484 131.049 98.1501 130.941C98.1517 130.841 98.1149 130.764 98.0397 130.711C97.9646 130.654 97.8472 130.614 97.6876 130.591L97.3044 130.537C96.8933 130.479 96.5949 130.374 96.4092 130.223C96.2236 130.072 96.1332 129.845 96.138 129.541C96.1431 129.221 96.257 128.975 96.4798 128.802C96.7026 128.63 97.0259 128.547 97.4499 128.553L97.6778 128.557C98.0818 128.563 98.4024 128.657 98.6395 128.836C98.8767 129.016 98.9929 129.254 98.9883 129.55L98.0884 129.536C98.0896 129.456 98.0507 129.391 97.9714 129.342C97.8963 129.289 97.7947 129.261 97.6667 129.259L97.4387 129.255C97.2907 129.253 97.1823 129.277 97.1135 129.328C97.0448 129.375 97.0096 129.449 97.008 129.549C97.0066 129.641 97.0355 129.711 97.0947 129.76C97.1579 129.809 97.2574 129.845 97.393 129.867L97.8061 129.927C98.2212 129.986 98.5276 130.095 98.7251 130.254C98.9266 130.413 99.0249 130.647 99.02 130.955C99.0146 131.291 98.8946 131.547 98.6597 131.723C98.4249 131.899 98.0815 131.984 97.6296 131.977L97.3656 131.973ZM100.029 131.787C99.7 131.834 99.4204 131.756 99.19 131.554C98.9595 131.353 98.8166 131.056 98.7613 130.663L98.644 129.832C98.5892 129.444 98.6446 129.121 98.8103 128.863C98.9753 128.601 99.2222 128.447 99.551 128.401C99.8203 128.363 100.043 128.412 100.22 128.549C100.396 128.682 100.504 128.889 100.544 129.17L100.307 128.991L100.515 128.962L100.372 128.164L100.246 127.273L101.137 127.147L101.749 131.484L100.888 131.606L100.8 130.982L100.592 131.011L100.77 130.774C100.81 131.055 100.764 131.286 100.632 131.466C100.499 131.642 100.298 131.749 100.029 131.787ZM100.241 130.97C100.403 130.947 100.523 130.883 100.602 130.78C100.679 130.672 100.706 130.533 100.682 130.362L100.573 129.59C100.549 129.42 100.485 129.295 100.381 129.217C100.277 129.135 100.143 129.105 99.9808 129.128C99.8144 129.152 99.6924 129.217 99.6147 129.325C99.5404 129.429 99.5153 129.565 99.5393 129.736L99.6483 130.508C99.6723 130.678 99.7346 130.805 99.8352 130.888C99.9391 130.966 100.074 130.993 100.241 130.97ZM102.829 131.148C102.512 131.248 102.224 131.218 101.963 131.057C101.702 130.896 101.512 130.627 101.393 130.249L101.139 129.448C101.021 129.075 101.022 128.747 101.143 128.465C101.263 128.18 101.481 127.987 101.797 127.887C102.056 127.805 102.285 127.817 102.482 127.922C102.677 128.024 102.818 128.21 102.904 128.481L102.64 128.344L102.84 128.281L102.568 127.518L102.296 126.659L103.154 126.388L104.475 130.564L103.646 130.826L103.456 130.226L103.256 130.289L103.393 130.025C103.478 130.296 103.471 130.531 103.37 130.731C103.269 130.927 103.088 131.066 102.829 131.148ZM102.902 130.306C103.059 130.257 103.167 130.174 103.227 130.059C103.286 129.94 103.289 129.798 103.237 129.634L103.002 128.89C102.95 128.726 102.866 128.614 102.751 128.555C102.634 128.491 102.498 128.484 102.341 128.533C102.181 128.584 102.072 128.669 102.013 128.788C101.957 128.902 101.955 129.041 102.007 129.205L102.242 129.949C102.294 130.113 102.376 130.228 102.489 130.293C102.604 130.352 102.742 130.357 102.902 130.306ZM105.412 130.095C105.116 130.245 104.839 130.285 104.583 130.213C104.33 130.14 104.134 129.966 103.995 129.691C103.844 129.395 103.831 129.117 103.955 128.857C104.08 128.591 104.335 128.36 104.72 128.165L105.33 127.855L105.219 127.636C105.161 127.522 105.074 127.451 104.957 127.425C104.844 127.398 104.72 127.418 104.585 127.487C104.46 127.55 104.371 127.631 104.318 127.73C104.265 127.829 104.255 127.933 104.288 128.041L103.512 128.435C103.394 128.123 103.403 127.824 103.541 127.539C103.681 127.248 103.929 127.012 104.285 126.831C104.66 126.641 105.003 126.583 105.315 126.658C105.628 126.728 105.864 126.918 106.021 127.228L107.027 129.207L106.251 129.601L106.006 129.12L105.878 129.185L105.917 128.93C106.029 129.151 106.038 129.368 105.945 129.582C105.853 129.79 105.675 129.961 105.412 130.095ZM105.412 129.355C105.569 129.275 105.677 129.169 105.735 129.036C105.795 128.898 105.79 128.761 105.721 128.625L105.561 128.31L104.967 128.611C104.846 128.673 104.766 128.758 104.728 128.868C104.687 128.974 104.696 129.084 104.754 129.198C104.815 129.319 104.905 129.394 105.024 129.424C105.14 129.45 105.27 129.427 105.412 129.355ZM108.116 129.693L107.759 128.421L104.929 126.587L105.725 126.018L106.967 126.9C107.059 126.967 107.165 127.054 107.285 127.16C107.406 127.26 107.503 127.343 107.575 127.41C107.535 127.32 107.486 127.203 107.427 127.058C107.369 126.908 107.323 126.779 107.29 126.67L106.843 125.219L107.604 124.675L108.882 129.146L108.116 129.693Z" fill="black"/>
<path d="M97.909 133.28C91.6797 133.28 86.2183 132.128 81.525 129.824C76.8317 127.435 73.205 124.149 70.645 119.968C68.085 115.701 66.805 110.752 66.805 105.12V88.48C66.805 82.7627 68.085 77.8133 70.645 73.632C73.205 69.4507 76.8317 66.208 81.525 63.904C86.2183 61.5147 91.6797 60.32 97.909 60.32C107.21 60.32 114.634 62.6667 120.181 67.36C125.728 72.0533 128.672 78.4533 129.013 86.56H109.813C109.557 83.5733 108.362 81.2267 106.229 79.52C104.181 77.8133 101.408 76.96 97.909 76.96C94.069 76.96 91.125 77.9413 89.077 79.904C87.029 81.8667 86.005 84.7253 86.005 88.48V105.12C86.005 108.789 87.029 111.648 89.077 113.696C91.125 115.659 94.069 116.64 97.909 116.64C101.408 116.64 104.181 115.829 106.229 114.208C108.362 112.501 109.557 110.112 109.813 107.04H129.013C128.672 115.147 125.728 121.547 120.181 126.24C114.634 130.933 107.21 133.28 97.909 133.28Z" fill="white"/>
</svg>
