<svg width="1204" height="349" viewBox="0 0 1204 349" fill="none" xmlns="http://www.w3.org/2000/svg">
<path d="M112.4 311.4C95.6 311.4 79.8667 307.933 65.2 301C50.5333 294.067 38.6667 282.867 29.6 267.4C20.8 251.933 16.4 231.533 16.4 206.2C16.4 200.6 16.5333 194.867 16.8 189C17.3333 182.867 18.1333 176.6 19.2 170.2C17.3333 169.933 15.4667 169.933 13.6 170.2C11.7333 170.2 10.1333 170.2 8.8 170.2C6.4 170.2 4.53333 169.667 3.2 168.6C1.86667 167.533 1.06667 165.267 0.8 161.8C0.8 158.067 1.6 154.6 3.2 151.4C5.06667 148.2 6.93333 147.667 8.8 149.8C11.7333 152.2 17.0667 153.667 24.8 154.2C30.1333 135.533 38.1333 118.333 48.8 102.6C59.7333 86.8667 72.1333 72.7333 86 60.2C100.133 47.4 114.667 36.6 129.6 27.8C144.8 18.7333 159.333 11.9333 173.2 7.4C187.067 2.6 199.333 0.199995 210 0.199995C219.067 0.199995 226.267 2.06666 231.6 5.79999C237.2 9.53333 240 15.4 240 23.4C240 26.8667 239.467 30.3333 238.4 33.8C236.267 42.8667 232.8 50.0667 228 55.4C223.467 60.7333 220.133 63.4 218 63.4C216.667 63.4 216 62.7333 216 61.4C216 60.0667 217.067 57.2667 219.2 53C223.2 45.8 225.2 39.5333 225.2 34.2C225.2 27.5333 222.533 22.6 217.2 19.4C211.867 15.9333 204.8 14.2 196 14.2C184.8 14.2 171.867 17 157.2 22.6C142.533 28.2 127.6 36.7333 112.4 48.2C97.2 59.4 83.2 73.8 70.4 91.4C57.8667 108.733 48.1333 129.4 41.2 153.4C46.2667 152.867 51.4667 152.333 56.8 151.8C62.1333 151 66.9333 150.067 71.2 149C106.4 141.267 132.933 135.8 150.8 132.6C168.933 129.133 180.267 127.4 184.8 127.4C188.8 127.4 188.533 128.333 184 130.2C179.467 132.067 171.733 134.733 160.8 138.2C150.133 141.4 137.067 145 121.6 149C106.133 152.733 89.3333 156.6 71.2 160.6C66.6667 161.667 61.3333 163 55.2 164.6C49.3333 166.2 43.3333 167.667 37.2 169C35.6 180.467 34.8 191.267 34.8 201.4C34.8 225.4 38.8 244.867 46.8 259.8C54.8 274.467 65.3333 285.133 78.4 291.8C91.4667 298.733 105.6 302.2 120.8 302.2C136.267 302.2 151.6 299.133 166.8 293C182.267 286.867 196.267 278.333 208.8 267.4C221.333 256.2 230.8 243.267 237.2 228.6C239.6 223.533 241.733 221 243.6 221C244.933 221 245.6 222.067 245.6 224.2C245.6 225.533 245.2 227.4 244.4 229.8C240.4 241.533 233.867 252.467 224.8 262.6C215.733 272.467 205.067 281 192.8 288.2C180.533 295.667 167.467 301.4 153.6 305.4C139.733 309.4 126 311.4 112.4 311.4ZM290.788 348.6C287.321 348.6 283.988 347.267 280.788 344.6C277.854 341.933 275.321 339.267 273.188 336.6C264.654 326.733 257.454 313.667 251.588 297.4C245.988 281.133 241.721 263.267 238.788 243.8C235.854 224.067 234.388 204.067 234.388 183.8C234.388 164.867 235.588 146.467 237.988 128.6C240.654 110.733 244.654 94.4667 249.988 79.8C255.321 65.1333 261.988 53.4 269.988 44.6C280.388 32.8667 290.388 27 299.988 27C305.854 27 310.521 29.6667 313.988 35C317.721 40.0667 319.588 48.2 319.588 59.4C319.588 70.0667 317.454 83.6667 313.188 100.2C309.188 116.467 302.254 135.933 292.388 158.6C288.921 166.067 285.188 173.533 281.188 181C277.454 188.467 273.454 196.333 269.188 204.6C267.588 207.8 266.254 209.4 265.188 209.4C264.654 209.4 264.388 208.867 264.388 207.8C264.388 205.667 265.321 202.867 267.188 199.4C291.454 153.8 303.588 108.467 303.588 63.4C303.588 45.5333 299.854 36.6 292.388 36.6C287.054 36.6 280.788 41.8 273.588 52.2C263.721 66.8667 256.921 84.3333 253.188 104.6C249.454 124.6 247.588 144.867 247.588 165.4C247.588 180.867 248.254 195.933 249.588 210.6C250.921 225 252.521 238.067 254.388 249.8C255.188 254.867 256.388 261.667 257.988 270.2C259.588 278.733 261.721 287.667 264.388 297C267.054 306.6 269.988 315.267 273.188 323C276.654 331 280.388 336.733 284.388 340.2C285.454 341 286.521 341.8 287.588 342.6C288.921 343.667 290.388 344.333 291.988 344.6C294.388 344.6 295.588 345.267 295.588 346.6C295.588 347.933 293.988 348.6 290.788 348.6ZM332.375 290.2C322.775 290.2 314.375 284.6 307.175 273.4C300.242 261.933 296.775 243.933 296.775 219.4C296.775 203.4 298.775 190.6 302.775 181C306.775 171.133 311.708 163.933 317.575 159.4C323.442 154.867 329.042 152.6 334.375 152.6C339.708 152.6 344.242 154.467 347.975 158.2C351.708 161.667 353.575 166.733 353.575 173.4C353.575 179.8 351.708 186.6 347.975 193.8C344.242 200.733 339.708 207.133 334.375 213C329.308 218.6 324.242 222.333 319.175 224.2C318.108 224.733 316.775 225 315.175 225C314.108 225 313.575 224.6 313.575 223.8C313.575 221.667 315.708 219.267 319.975 216.6C325.308 212.867 330.375 207.267 335.175 199.8C339.975 192.067 342.375 185.267 342.375 179.4C342.375 175.933 341.575 173.267 339.975 171.4C338.375 169.267 336.508 168.2 334.375 168.2C330.375 168.2 325.975 171.4 321.175 177.8C316.642 183.933 313.308 194.6 311.175 209.8C310.642 214.067 310.108 218.2 309.575 222.2C309.308 225.933 309.175 229.667 309.175 233.4C309.175 248.333 311.442 260.067 315.975 268.6C320.508 276.867 326.508 281 333.975 281C340.375 281 347.575 277.267 355.575 269.8C363.575 262.067 371.442 250.067 379.175 233.8C381.042 229.533 383.175 227.4 385.575 227.4C387.175 227.4 387.975 228.467 387.975 230.6C387.975 232.467 387.442 234.467 386.375 236.6C379.442 253.667 371.042 266.867 361.175 276.2C351.308 285.533 341.708 290.2 332.375 290.2ZM460.872 290.2C457.405 290.2 454.339 288.067 451.672 283.8C449.005 279.267 447.672 270.733 447.672 258.2C447.672 248.333 448.472 237.533 450.072 225.8C451.672 213.8 453.405 201.933 455.272 190.2C457.405 178.467 459.272 168.067 460.872 159C462.472 149.667 463.272 142.867 463.272 138.6C463.272 131.133 461.005 127.4 456.472 127.4C452.205 127.4 447.805 129.533 443.272 133.8C439.005 138.067 434.872 143.267 430.872 149.4C427.139 155.533 423.805 161.533 420.872 167.4C418.205 173 416.472 177.133 415.672 179.8C411.939 190.2 409.272 200.6 407.672 211C406.072 221.133 405.272 231.667 405.272 242.6C405.272 247.133 405.405 251.8 405.672 256.6C406.205 261.4 406.605 266.333 406.872 271.4C407.405 274.067 406.605 277.4 404.472 281.4C402.605 285.133 400.339 287 397.672 287C395.805 287 394.205 285.8 392.872 283.4C391.539 281 390.605 278.867 390.072 277C389.005 273.8 388.205 270.467 387.672 267C387.139 263.267 386.605 260.067 386.072 257.4C384.205 246.467 382.472 235.4 380.872 224.2C379.272 212.733 377.005 201.667 374.072 191C373.272 188.067 372.205 185 370.872 181.8C369.805 178.333 368.072 175.533 365.672 173.4C365.139 172.867 364.339 172.333 363.272 171.8C362.205 171 361.672 170.333 361.672 169.8C361.672 168.733 363.139 168.2 366.072 168.2C369.272 168.2 372.472 169.8 375.672 173C378.872 176.2 381.805 180.467 384.472 185.8C387.672 192.467 390.339 199.533 392.472 207C394.872 214.467 396.739 220.467 398.072 225C399.672 215.4 401.405 206.867 403.272 199.4C405.139 193 407.672 185.4 410.872 176.6C414.072 167.533 418.072 158.733 422.872 150.2C427.672 141.4 433.405 134.2 440.072 128.6C446.739 122.733 454.472 119.8 463.272 119.8C476.072 119.8 482.472 127.267 482.472 142.2C482.472 149.933 481.139 158.467 478.472 167.8C475.805 176.867 472.872 185.267 469.672 193C466.739 200.733 464.739 206.067 463.672 209C462.339 212.733 460.872 217.8 459.272 224.2C457.939 230.6 456.739 237.267 455.672 244.2C454.872 251.133 454.472 257.533 454.472 263.4C454.472 268.467 455.005 272.733 456.072 276.2C457.405 279.4 459.405 281 462.072 281C464.739 281 467.139 279.8 469.272 277.4C471.405 274.733 473.139 272.333 474.472 270.2C476.072 268.067 476.872 267.667 476.872 269C477.405 273 475.939 277.533 472.472 282.6C469.272 287.667 465.405 290.2 460.872 290.2ZM532.525 151.4C530.125 151.4 528.392 150.2 527.325 147.8C526.525 145.133 526.125 143.267 526.125 142.2C526.125 137.933 527.325 133.933 529.725 130.2C532.392 126.2 535.325 124.067 538.525 123.8H539.725C542.925 123.8 545.058 124.6 546.125 126.2C547.458 127.533 548.125 129.267 548.125 131.4C548.125 135.4 546.392 139.8 542.925 144.6C539.458 149.133 535.992 151.4 532.525 151.4ZM512.125 294.6C503.058 294.6 496.925 291.133 493.725 284.2C490.525 277.267 488.925 269.267 488.925 260.2C488.925 251.133 489.858 241.667 491.725 231.8C493.858 221.667 496.125 212.467 498.525 204.2C501.192 195.933 503.192 190.067 504.525 186.6C507.458 180.467 510.392 175.267 513.325 171C516.258 166.467 519.458 164.2 522.925 164.2C525.325 164.2 527.058 165.133 528.125 167C529.458 168.6 530.125 170.733 530.125 173.4C530.125 178.733 528.658 184.2 525.725 189.8C522.792 195.133 520.125 200.2 517.725 205C512.392 215.933 508.125 225.667 504.925 234.2C501.992 242.733 500.525 253.4 500.525 266.2C500.525 274.467 501.325 280.467 502.925 284.2C504.792 287.933 507.325 289.8 510.525 289.8C514.792 289.8 519.725 287.4 525.325 282.6C530.925 277.533 536.658 270.867 542.525 262.6C548.392 254.333 553.592 245.4 558.125 235.8C561.058 229.667 563.325 226.6 564.925 226.6C565.992 226.6 566.525 227.667 566.525 229.8C566.525 232.733 565.325 237 562.925 242.6C560.792 247.933 558.125 253.4 554.925 259C551.992 264.6 549.192 269 546.525 272.2C541.992 278.067 536.792 283.267 530.925 287.8C525.058 292.333 518.792 294.6 512.125 294.6ZM621.156 313.8C619.823 313.8 619.156 312.733 619.156 310.6C619.156 308.733 619.823 306.467 621.156 303.8C622.49 301.133 624.223 299 626.356 297.4C628.49 296.067 630.756 294.6 633.156 293C635.29 291.667 637.423 290.467 639.556 289.4C639.29 288.867 639.156 287.933 639.156 286.6C639.156 284.467 639.823 283.4 641.156 283.4C641.956 283.4 643.156 284.333 644.756 286.2C665.556 274.733 685.823 266.333 705.556 261V259.8C705.556 252.333 703.556 245.4 699.556 239C695.823 232.6 691.023 226.067 685.156 219.4C679.29 212.733 673.29 205.4 667.156 197.4C661.29 189.4 655.956 180.333 651.156 170.2C646.623 159.8 643.69 147.667 642.356 133.8C642.09 132.2 641.956 130.6 641.956 129C641.956 127.4 641.956 125.8 641.956 124.2C641.956 107.133 645.823 91.6667 653.556 77.8C661.29 63.9333 671.29 52.0666 683.556 42.2C696.09 32.0666 709.556 24.2 723.956 18.6C735.423 14.0667 748.49 11.8 763.156 11.8C768.49 11.8 773.556 12.2 778.356 13C792.49 15.6667 802.356 20.3333 807.956 27C813.556 33.6667 816.356 40.3333 816.356 47C816.356 52.0667 815.023 56.6 812.356 60.6C809.69 64.6 807.823 66.6 806.756 66.6C805.956 66.6 805.556 66.0667 805.556 65C805.556 64.4667 805.69 63.6666 805.956 62.6C806.49 61.2666 806.89 59.9333 807.156 58.6C807.956 56.4667 808.49 54.6 808.756 53C809.023 51.4 809.156 49.8 809.156 48.2C809.156 39.6667 805.156 33.4 797.156 29.4C789.423 25.1333 781.156 23 772.356 23C771.29 23 770.09 23 768.756 23C767.423 23 766.09 23.1333 764.756 23.4C747.956 25.8 732.09 31.9333 717.156 41.8C702.223 51.6667 689.556 64.6 679.156 80.6C669.023 96.3333 662.356 114.467 659.156 135C658.89 136.867 658.623 138.733 658.356 140.6C658.356 142.467 658.356 144.2 658.356 145.8C658.356 158.333 661.023 169.8 666.356 180.2C671.69 190.333 677.956 199.8 685.156 208.6C692.623 217.4 699.69 225.933 706.356 234.2C713.023 242.2 717.556 250.2 719.956 258.2C725.29 257.133 730.49 256.467 735.556 256.2C740.623 255.933 745.556 255.933 750.356 256.2C754.09 256.733 755.956 257.8 755.956 259.4C755.956 261 753.29 261.8 747.956 261.8C744.223 261.8 740.09 262.067 735.556 262.6C731.023 262.867 726.223 263.667 721.156 265C721.423 265.8 721.556 266.6 721.556 267.4C721.556 268.2 721.556 268.867 721.556 269.4C721.556 272.067 721.156 274.867 720.356 277.8C716.89 288.467 710.623 296.333 701.556 301.4C692.49 306.467 683.29 309 673.956 309C664.89 309 657.29 307.133 651.156 303.4C649.023 302.333 647.023 300.867 645.156 299C641.69 300.867 638.223 303 634.756 305.4C631.023 307.8 627.423 310.2 623.956 312.6C622.89 313.4 621.956 313.8 621.156 313.8ZM670.356 301.8C678.09 301.8 685.69 299.267 693.156 294.2C700.623 289.4 704.756 281.267 705.556 269.8C687.956 275.933 669.823 284.467 651.156 295.4C655.423 299.667 661.823 301.8 670.356 301.8ZM768.775 294.2C758.642 294.2 753.575 282.333 753.575 258.6C753.575 246.067 754.242 235.4 755.575 226.6C756.908 217.533 758.242 208.733 759.575 200.2C760.908 191.4 761.575 181.4 761.575 170.2C761.575 163.267 761.042 157.267 759.975 152.2C758.908 147.133 756.642 144.6 753.175 144.6C751.308 144.6 749.708 145.4 748.375 147C747.308 148.333 746.242 149.8 745.175 151.4C744.108 153.533 743.308 154.6 742.775 154.6C742.242 154.6 741.975 153.933 741.975 152.6C741.975 149.667 742.908 146.333 744.775 142.6C746.908 138.867 749.708 137 753.175 137C757.708 137 761.175 139.4 763.575 144.2C765.975 149 767.575 153.8 768.375 158.6C769.175 165.8 769.575 172.467 769.575 178.6C769.575 189.267 768.908 199.533 767.575 209.4C766.242 219 765.575 230.2 765.575 243C765.575 255.8 766.775 265.533 769.175 272.2C771.575 278.6 774.375 281.8 777.575 281.8C779.975 281.8 782.642 280.067 785.575 276.6C788.508 273.133 791.308 269 793.975 264.2C799.042 255.4 803.308 245.4 806.775 234.2C810.242 222.733 813.442 212.067 816.375 202.2C817.175 199 819.042 197.4 821.975 197.4C825.975 197.4 828.908 199.4 830.775 203.4C831.575 205 832.108 208.467 832.375 213.8C832.642 218.867 832.775 225.533 832.775 233.8C832.775 238.067 832.908 242.733 833.175 247.8C833.708 252.867 834.642 257.133 835.975 260.6C837.308 264.067 839.308 265.8 841.975 265.8C845.442 265.8 848.775 261.4 851.975 252.6C854.908 243.8 857.175 232.6 858.775 219C860.642 205.133 863.042 192.2 865.975 180.2C868.108 170.867 871.042 162.867 874.775 156.2C878.775 149.533 884.108 146.2 890.775 146.2C894.242 146.2 897.442 147.133 900.375 149C903.575 150.6 906.108 152.333 907.975 154.2C909.842 156.067 910.908 157.533 911.175 158.6C911.708 159.4 911.975 160.2 911.975 161C911.975 162.867 911.575 163.8 910.775 163.8C909.708 163.8 908.508 163.133 907.175 161.8C905.575 160.2 902.642 159.4 898.375 159.4C893.042 159.4 888.508 162.2 884.775 167.8C881.042 173.4 878.108 179.133 875.975 185C873.042 193.533 870.508 202.867 868.375 213C866.242 223.133 864.508 232.6 863.175 241.4C861.842 249.933 860.508 256.333 859.175 260.6C857.575 266.467 855.575 270.6 853.175 273C851.042 275.4 848.642 276.6 845.975 276.6C841.708 276.6 837.308 274.067 832.775 269C828.242 263.933 824.242 257.933 820.775 251C817.575 243.8 815.575 237.533 814.775 232.2H813.975C812.908 238.6 810.775 245.4 807.575 252.6C804.375 259.8 800.508 266.6 795.975 273C791.708 279.133 787.175 284.2 782.375 288.2C777.575 292.2 773.042 294.2 768.775 294.2ZM930.422 290.2C920.822 290.2 912.422 284.6 905.222 273.4C898.289 261.933 894.822 243.933 894.822 219.4C894.822 203.4 896.822 190.6 900.822 181C904.822 171.133 909.755 163.933 915.622 159.4C921.489 154.867 927.089 152.6 932.422 152.6C937.755 152.6 942.289 154.467 946.022 158.2C949.755 161.667 951.622 166.733 951.622 173.4C951.622 179.8 949.755 186.6 946.022 193.8C942.289 200.733 937.755 207.133 932.422 213C927.355 218.6 922.289 222.333 917.222 224.2C916.155 224.733 914.822 225 913.222 225C912.155 225 911.622 224.6 911.622 223.8C911.622 221.667 913.755 219.267 918.022 216.6C923.355 212.867 928.422 207.267 933.222 199.8C938.022 192.067 940.422 185.267 940.422 179.4C940.422 175.933 939.622 173.267 938.022 171.4C936.422 169.267 934.555 168.2 932.422 168.2C928.422 168.2 924.022 171.4 919.222 177.8C914.689 183.933 911.355 194.6 909.222 209.8C908.689 214.067 908.155 218.2 907.622 222.2C907.355 225.933 907.222 229.667 907.222 233.4C907.222 248.333 909.489 260.067 914.022 268.6C918.555 276.867 924.555 281 932.022 281C938.422 281 945.622 277.267 953.622 269.8C961.622 262.067 969.489 250.067 977.222 233.8C979.089 229.533 981.222 227.4 983.622 227.4C985.222 227.4 986.022 228.467 986.022 230.6C986.022 232.467 985.489 234.467 984.422 236.6C977.489 253.667 969.089 266.867 959.222 276.2C949.355 285.533 939.755 290.2 930.422 290.2ZM1009.72 290.2C1000.12 290.2 991.719 284.6 984.519 273.4C977.585 261.933 974.119 243.933 974.119 219.4C974.119 203.4 976.119 190.6 980.119 181C984.119 171.133 989.052 163.933 994.919 159.4C1000.79 154.867 1006.39 152.6 1011.72 152.6C1017.05 152.6 1021.59 154.467 1025.32 158.2C1029.05 161.667 1030.92 166.733 1030.92 173.4C1030.92 179.8 1029.05 186.6 1025.32 193.8C1021.59 200.733 1017.05 207.133 1011.72 213C1006.65 218.6 1001.59 222.333 996.519 224.2C995.452 224.733 994.119 225 992.519 225C991.452 225 990.919 224.6 990.919 223.8C990.919 221.667 993.052 219.267 997.319 216.6C1002.65 212.867 1007.72 207.267 1012.52 199.8C1017.32 192.067 1019.72 185.267 1019.72 179.4C1019.72 175.933 1018.92 173.267 1017.32 171.4C1015.72 169.267 1013.85 168.2 1011.72 168.2C1007.72 168.2 1003.32 171.4 998.519 177.8C993.985 183.933 990.652 194.6 988.519 209.8C987.985 214.067 987.452 218.2 986.919 222.2C986.652 225.933 986.519 229.667 986.519 233.4C986.519 248.333 988.785 260.067 993.319 268.6C997.852 276.867 1003.85 281 1011.32 281C1017.72 281 1024.92 277.267 1032.92 269.8C1040.92 262.067 1048.79 250.067 1056.52 233.8C1058.39 229.533 1060.52 227.4 1062.92 227.4C1064.52 227.4 1065.32 228.467 1065.32 230.6C1065.32 232.467 1064.79 234.467 1063.72 236.6C1056.79 253.667 1048.39 266.867 1038.52 276.2C1028.65 285.533 1019.05 290.2 1009.72 290.2ZM1088.22 349C1085.55 349 1082.75 347.267 1079.82 343.8C1077.15 340.6 1074.62 336.067 1072.22 330.2C1068.22 320.6 1065.42 310.467 1063.82 299.8C1062.22 289.4 1061.42 278.867 1061.42 268.2C1061.42 256.467 1062.22 245 1063.82 233.8C1065.42 222.6 1067.15 212.467 1069.02 203.4C1070.35 197 1071.95 190.2 1073.82 183C1075.68 175.8 1077.42 170.067 1079.02 165.8C1077.42 166.067 1074.88 167 1071.42 168.6C1067.95 170.2 1064.35 171.8 1060.62 173.4C1057.15 175 1054.08 175.8 1051.42 175.8C1047.42 175.8 1045.42 173.533 1045.42 169C1045.42 166.6 1046.22 164.467 1047.82 162.6C1049.68 160.733 1051.95 159.267 1054.62 158.2C1059.95 155.8 1065.82 154.067 1072.22 153C1078.62 151.667 1082.88 150.333 1085.02 149L1095.42 122.6C1096.48 119.933 1098.35 115.667 1101.02 109.8C1103.95 103.667 1107.28 97.1333 1111.02 90.2C1115.02 83.2667 1118.88 77 1122.62 71.4C1125.55 67.1333 1128.35 63.8 1131.02 61.4C1133.68 58.7333 1136.62 57.4 1139.82 57.4C1144.62 57.4 1147.02 59.2667 1147.02 63C1147.02 65.1333 1146.08 68.3333 1144.22 72.6C1142.62 76.8667 1139.55 82.4667 1135.02 89.4C1129.95 97.4 1124.75 105.4 1119.42 113.4C1114.35 121.133 1109.95 129.267 1106.22 137.8C1105.95 138.867 1105.28 140.6 1104.22 143C1103.42 145.133 1102.75 146.467 1102.22 147L1110.22 145.8C1112.35 145.533 1114.75 145.4 1117.42 145.4C1120.08 145.133 1123.02 145 1126.22 145C1130.75 145 1135.02 145.267 1139.02 145.8C1143.28 146.067 1146.75 146.733 1149.42 147.8C1150.75 148.333 1151.95 149 1153.02 149.8C1154.35 150.333 1155.02 150.867 1155.02 151.4C1155.02 152.467 1151.55 153 1144.62 153C1140.62 153 1134.88 153.667 1127.42 155C1120.22 156.333 1111.95 158.467 1102.62 161.4C1098.08 162.733 1095.02 164.6 1093.42 167C1091.82 169.4 1089.68 175.133 1087.02 184.2C1083.02 198.6 1079.82 212.467 1077.42 225.8C1075.02 238.867 1073.15 252.2 1071.82 265.8C1071.55 268.467 1071.28 271.267 1071.02 274.2C1071.02 277.133 1071.02 280.333 1071.02 283.8C1071.02 292.867 1071.82 302.333 1073.42 312.2C1075.28 322.067 1077.95 330.6 1081.42 337.8C1082.22 339.4 1083.02 340.867 1083.82 342.2C1084.88 343.533 1086.08 344.467 1087.42 345C1089.28 345.8 1090.22 346.733 1090.22 347.8C1090.22 348.6 1089.55 349 1088.22 349ZM1155.8 302.2C1152.34 302.2 1149.8 301 1148.2 298.6C1146.87 296.467 1146.2 294.333 1146.2 292.2C1146.2 287.933 1148.07 283.533 1151.8 279C1153.14 277.4 1155 275.267 1157.4 272.6C1159.8 269.667 1161.54 267.4 1162.6 265.8C1159.14 261 1154.47 256.6 1148.6 252.6C1142.74 248.6 1137 243.533 1131.4 237.4C1126.34 231.8 1122.07 225 1118.6 217C1115.14 208.733 1113.4 200.867 1113.4 193.4C1113.4 184.6 1115.4 176.2 1119.4 168.2C1123.4 160.2 1128.34 153.267 1134.2 147.4C1140.6 141 1147.67 135.933 1155.4 132.2C1163.14 128.2 1171.14 126.2 1179.4 126.2C1185 126.2 1190.47 127.533 1195.8 130.2C1201.14 132.867 1203.8 137.267 1203.8 143.4C1203.8 150.6 1202.2 154.2 1199 154.2C1197.67 154.2 1196.74 152.867 1196.2 150.2C1195.94 148.867 1195.8 147.533 1195.8 146.2C1195.8 144.6 1195.8 143.533 1195.8 143C1195.8 140.333 1194.6 138.067 1192.2 136.2C1189.8 134.067 1187.14 133 1184.2 133C1178.07 133 1171.27 135.4 1163.8 140.2C1156.34 145 1150.07 150.6 1145 157C1139.94 163.667 1135.8 171.267 1132.6 179.8C1129.4 188.067 1127.8 196.067 1127.8 203.8C1127.8 213.4 1129.94 221.667 1134.2 228.6C1138.47 235.533 1143.54 241.667 1149.4 247C1155.54 252.333 1161 257.533 1165.8 262.6C1168.2 259.667 1170.74 256.867 1173.4 254.2C1176.34 251.533 1179 249.4 1181.4 247.8C1183.54 246.467 1185 245.8 1185.8 245.8C1186.6 245.8 1187 246.2 1187 247C1187 248.333 1185.8 249.933 1183.4 251.8C1182.87 252.333 1181.27 253.933 1178.6 256.6C1176.2 259 1173.27 262.067 1169.8 265.8C1171.94 268.2 1173.67 270.733 1175 273.4C1176.34 276.067 1177 279 1177 282.2C1177 286.467 1174.6 290.867 1169.8 295.4C1165 299.933 1160.34 302.2 1155.8 302.2ZM1160.2 291.4C1162.07 291.4 1163.8 289.667 1165.4 286.2C1167.27 283 1168.2 279.8 1168.2 276.6C1168.2 275 1167.94 273.533 1167.4 272.2C1166.87 270.867 1166.47 270.067 1166.2 269.8C1164.07 272.467 1162.07 275.4 1160.2 278.6C1158.6 281.533 1157.8 284.2 1157.8 286.6C1157.8 289.8 1158.6 291.4 1160.2 291.4Z" fill="black"/>
</svg>
