<svg width="82" height="72" viewBox="0 0 82 72" fill="none" xmlns="http://www.w3.org/2000/svg">
<path d="M74.6999 34.3C73.5999 34.3 72.5999 34.1 71.5999 33.8L60.9999 44.1001C61.2999 45.0001 61.3999 46 61.3999 47C61.3999 52.4 56.9999 56.9 51.5999 56.9C46.1999 56.9 41.6999 52.5 41.6999 47C41.6999 45.9 41.8999 44.8 42.1999 43.8L32.7999 34C30.8999 34.6 28.7999 34.5001 26.8999 33.9001L16.2999 44.1001C16.5999 45.0001 16.6999 46 16.6999 47C16.6999 50.7 14.5999 54.1 11.2999 55.8C17.6999 65.2 28.4999 71.4 40.7999 71.4C60.4999 71.4 76.4999 55.4001 76.4999 35.7001C76.4999 35.2001 76.4999 34.6001 76.4999 34.1001C75.8999 34.2001 75.2999 34.3 74.6999 34.3Z" fill="#2E8459"/>
<path d="M6.89998 37.1C7.99998 37.1 8.99998 37.3 9.99998 37.6L20.6 27.3C20.3 26.4 20.2 25.4 20.2 24.4C20.2 19 24.6 14.5 30 14.5C35.4 14.5 39.9 18.9 39.9 24.4C39.9 25.5 39.7 26.6 39.4 27.6L48.8 37.4C50.7 36.8 52.8 36.9 54.7 37.5L65.3 27.2C65 26.3 64.9 25.3 64.9 24.3C64.9 20.6 67 17.2 70.3 15.5C63.9 6.2 53.1 0 40.8 0C21.1 0 5.09998 16 5.09998 35.7C5.09998 36.2 5.09998 36.8 5.09998 37.3C5.69998 37.2 6.29998 37.1 6.89998 37.1Z" fill="#2E8459"/>
<path d="M74.7 17.1C73.7 17.1 72.8 17.3 72 17.7C69.5 18.8 67.9 21.2 67.9 24C67.9 25.3 68.3 26.5 68.9 27.6L55.3 40.7C54.2 40 52.9 39.6 51.6 39.6C50.3 39.6 49.1 39.9 48.1 40.6L35.8 27.7C36.5 26.6 37 25.3 37 23.9C37 20.1 33.9 17 30.1 17C26.3 17 23.3 20.1 23.3 23.9C23.3 25.2 23.7 26.4 24.3 27.5L10.6 40.7C9.5 40 8.2 39.6 6.9 39.6C6.3 39.6 5.8 39.7 5.3 39.8C2.2 40.5 0 43.3 0 46.5C0 50.3 3.1 53.4 6.9 53.4C7.9 53.4 8.8 53.2 9.6 52.8C12.1 51.7 13.7 49.3 13.7 46.5C13.7 45.2 13.3 44 12.7 42.9L26.3 29.7C27.4 30.4 28.7 30.8 30 30.8C31.3 30.8 32.5 30.5 33.5 29.8L45.8 42.7C45.1 43.8 44.6 45.1 44.6 46.5C44.6 50.3 47.7 53.4 51.5 53.4C55.3 53.4 58.3 50.3 58.3 46.5C58.3 45.2 57.9 44 57.3 42.9L70.9 29.7C72 30.4 73.3 30.8 74.6 30.8C75.2 30.8 75.7 30.7 76.2 30.6C79.3 29.9 81.5 27.1 81.5 23.9C81.6 20.2 78.5 17.1 74.7 17.1ZM8.4 50C7.9 50.2 7.4 50.3 6.9 50.3C4.8 50.3 3 48.6 3 46.4C3 44.6 4.2 43.1 6 42.7C6.3 42.6 6.6 42.6 6.9 42.6C7.9 42.6 8.9 43 9.7 43.8C10.4 44.5 10.8 45.5 10.8 46.5C10.7 48 9.8 49.4 8.4 50ZM27.3 26.6C26.6 25.9 26.2 24.9 26.2 23.9C26.2 21.8 27.9 20 30 20C32.1 20 33.9 21.7 33.9 23.9C33.9 25 33.5 25.9 32.7 26.7C32 27.4 31.1 27.8 30.1 27.8C29 27.8 28 27.4 27.3 26.6ZM51.5 50.3C49.4 50.3 47.6 48.6 47.6 46.4C47.6 45.3 48 44.4 48.8 43.6C49.5 42.9 50.4 42.5 51.4 42.5C52.4 42.5 53.4 42.9 54.2 43.7C54.9 44.4 55.3 45.4 55.3 46.4C55.4 48.6 53.7 50.3 51.5 50.3ZM75.6 27.7C75.3 27.8 75 27.8 74.7 27.8C73.7 27.8 72.7 27.4 71.9 26.6C71.2 25.9 70.8 24.9 70.8 23.9C70.8 22.4 71.7 21 73.1 20.4C73.6 20.2 74.1 20.1 74.6 20.1C76.7 20.1 78.4 21.8 78.4 24C78.6 25.7 77.4 27.3 75.6 27.7Z" fill="#2E8459"/>
</svg>
